<svg width="82" height="26" fill="none" xmlns="http://www.w3.org/2000/svg"><path d="M19.547 11.097C15.615 8.7 9.127 8.48 5.373 9.649a1.123 1.123 0 0 1-1.214-.379 1.189 1.189 0 0 1-.125-1.29c.142-.273.386-.48.676-.571 4.31-1.343 11.474-1.083 16.002 1.674a1.186 1.186 0 0 1 .104 1.943 1.127 1.127 0 0 1-1.269.07Zm-.129 3.548a.954.954 0 0 1-.587.438.933.933 0 0 1-.72-.117c-3.28-2.068-8.278-2.667-12.158-1.458a.937.937 0 0 1-1.013-.316.993.993 0 0 1-.102-1.074.97.97 0 0 1 .563-.478c4.43-1.38 9.94-.711 13.705 1.664a.99.99 0 0 1 .313 1.341h-.001Zm-1.491 3.408a.762.762 0 0 1-.47.352.744.744 0 0 1-.577-.093c-2.866-1.796-6.47-2.202-10.718-1.205a.749.749 0 0 1-.79-.311.79.79 0 0 1 .18-1.085.77.77 0 0 1 .272-.126c4.647-1.09 8.633-.62 11.85 1.395a.795.795 0 0 1 .252 1.073ZM12.33 0C5.593 0 .13 5.604.13 12.516c0 6.913 5.462 12.517 12.2 12.517 6.739 0 12.202-5.604 12.202-12.517C24.532 5.604 19.069 0 12.33 0Zm20.992 11.555c-2.106-.516-2.482-.877-2.482-1.638 0-.718.66-1.2 1.64-1.2.949 0 1.892.367 2.879 1.122a.136.136 0 0 0 .195-.031l1.03-1.488a.145.145 0 0 0-.027-.193c-1.175-.968-2.5-1.437-4.047-1.437-2.274 0-3.862 1.4-3.862 3.403 0 2.149 1.371 2.908 3.739 3.496 2.015.477 2.355.877 2.355 1.59 0 .79-.687 1.282-1.794 1.282-1.23 0-2.233-.426-3.354-1.423a.137.137 0 0 0-.102-.034.136.136 0 0 0-.094.051l-1.154 1.408a.143.143 0 0 0 .014.196c1.306 1.197 2.91 1.828 4.642 1.828 2.451 0 4.036-1.374 4.036-3.5 0-1.798-1.047-2.792-3.614-3.432Zm10.938 2.409c0 1.516-.912 2.576-2.217 2.576-1.288 0-2.262-1.106-2.262-2.576s.973-2.576 2.263-2.576c1.283 0 2.216 1.082 2.216 2.576Zm-1.78-4.541c-1.061 0-1.933.43-2.652 1.31v-.991a.142.142 0 0 0-.084-.13.138.138 0 0 0-.053-.011h-1.888a.136.136 0 0 0-.097.042.142.142 0 0 0-.04.1v11a.14.14 0 0 0 .139.143h1.886a.138.138 0 0 0 .097-.043.142.142 0 0 0 .04-.1V17.27c.72.829 1.59 1.231 2.652 1.231 1.975 0 3.972-1.558 3.972-4.537 0-2.981-1.997-4.541-3.972-4.541Zm9.096 7.133c-1.353 0-2.372-1.114-2.372-2.593 0-1.483.983-2.56 2.34-2.56 1.361 0 2.387 1.114 2.387 2.593 0 1.483-.99 2.56-2.355 2.56Zm0-7.132c-2.543 0-4.535 2.009-4.535 4.571 0 2.537 1.978 4.525 4.503 4.525 2.55 0 4.548-2.003 4.548-4.557 0-2.545-1.983-4.54-4.517-4.54Zm9.945.177h-2.076V7.423a.142.142 0 0 0-.083-.131.135.135 0 0 0-.055-.01h-1.886a.139.139 0 0 0-.137.14V9.6h-.907a.137.137 0 0 0-.128.089.146.146 0 0 0-.01.054v1.663a.14.14 0 0 0 .138.141h.907v4.304c0 1.739.844 2.62 2.508 2.62.675 0 1.236-.143 1.766-.452a.14.14 0 0 0 .07-.122v-1.583a.142.142 0 0 0-.066-.12.136.136 0 0 0-.134-.006 2.329 2.329 0 0 1-1.107.274c-.605 0-.876-.283-.876-.914v-4h2.076a.136.136 0 0 0 .098-.043.142.142 0 0 0 .04-.1V9.741a.143.143 0 0 0-.085-.131.137.137 0 0 0-.053-.011V9.6Zm7.232.007v-.266c0-.787.293-1.139.953-1.139.393 0 .71.08 1.063.203a.136.136 0 0 0 .123-.021.14.14 0 0 0 .059-.115V6.64a.144.144 0 0 0-.098-.137 5.06 5.06 0 0 0-1.567-.23c-1.742 0-2.664 1.007-2.664 2.909v.41h-.907a.138.138 0 0 0-.137.141v1.672a.14.14 0 0 0 .138.142h.907v6.638c0 .078.06.14.137.14h1.887a.139.139 0 0 0 .136-.14v-6.638h1.763l2.697 6.636c-.306.698-.608.837-1.019.837-.332 0-.682-.103-1.04-.303a.14.14 0 0 0-.11-.01.14.14 0 0 0-.081.075l-.639 1.439a.143.143 0 0 0 .059.183 3.89 3.89 0 0 0 2.015.53c1.391 0 2.162-.666 2.84-2.457l3.273-8.675a.148.148 0 0 0-.015-.131.137.137 0 0 0-.112-.063H76.45a.138.138 0 0 0-.132.096l-2.01 5.894L72.104 9.7a.138.138 0 0 0-.129-.092h-3.223ZM64.56 9.6h-1.887a.138.138 0 0 0-.097.043.142.142 0 0 0-.04.1v8.442c0 .078.063.14.138.14h1.887a.139.139 0 0 0 .137-.14V9.742a.141.141 0 0 0-.085-.131.139.139 0 0 0-.053-.011Zm-.934-3.844a1.35 1.35 0 0 0-.959.41 1.39 1.39 0 0 0-.393.978 1.4 1.4 0 0 0 .393.978 1.36 1.36 0 0 0 .96.41c.36-.002.706-.15.96-.41.253-.26.394-.612.392-.978 0-.767-.605-1.388-1.351-1.388h-.002Zm16.602 4.684h-.345v.452h.346c.172 0 .275-.086.275-.225 0-.148-.103-.226-.276-.226v-.001Zm.225.645.375.54h-.317l-.337-.495h-.29v.494h-.266v-1.429h.62c.324 0 .538.17.538.455a.43.43 0 0 1-.323.435Zm-.294-1.366c-.68 0-1.196.555-1.196 1.234 0 .678.511 1.225 1.188 1.225.68 0 1.197-.555 1.197-1.234 0-.678-.513-1.224-1.19-1.224v-.001Zm-.008 2.595a1.314 1.314 0 0 1-.943-.4 1.352 1.352 0 0 1-.383-.96c0-.748.587-1.37 1.334-1.37a1.313 1.313 0 0 1 .941.4 1.35 1.35 0 0 1 .385.96c0 .748-.587 1.371-1.334 1.371v-.001Z" fill="#000"/></svg>